<svg width="640" height="480" xmlns="http://www.w3.org/2000/svg" xmlns:svg="http://www.w3.org/2000/svg">
 <!-- Created with SVG-edit - http://svg-edit.googlecode.com/ -->
 <g>
  <title>Layer 1</title>
  <path stroke="rgba(177, 177, 177, 0.58)" transform="rotate(-22.9045467376709 167.73069763183574,245.86131286621085) " id="svg_6" d="m259.42866,38.64589c-69.6358,0 -137.12872,65.3605 -168.57641,93.99967c-32.99378,30.04815 -89.92626,45.05186 -89.92626,117.72257c0,91.23706 66.63155,230.20017 141.98151,197.95108c51.58509,-22.07824 74.87449,-38.44173 103.33463,-105.90822c22.01647,-52.19098 85.60715,-74.26193 85.60715,-161.52421c-0.0004,-91.2359 24.15853,-142.24089 -72.42063,-142.24089l0.00001,0z" opacity="0.75" stroke-linecap="null" stroke-linejoin="null" stroke-dasharray="null" stroke-width="0.2" fill="rgba(255, 255, 255, 0.68)"/>
  <path stroke="rgba(157, 152, 152, 0.76)" transform="rotate(-22.9045467376709 169.14761352539057,237.55657958984375) " d="m241.83869,63.62065c-55.20191,0 -108.70511,54.86339 -133.63442,78.90301c-26.15493,25.22232 -71.28662,37.81638 -71.28662,98.81593c0,76.58408 52.82038,193.22925 112.55202,166.15947c40.89269,-18.5324 59.35475,-32.26786 81.91575,-88.89901c17.45297,-43.80894 67.86277,-62.33521 67.86277,-135.58288c-0.00032,-76.58311 19.15103,-119.39652 -57.40951,-119.39652l0.00001,0l-0.00001,-0.00001z" opacity="0.75" stroke-linecap="null" stroke-linejoin="null" stroke-dasharray="null" stroke-width="0.2" fill="rgba(255, 255, 255, 0.68)" id="svg_1"/>
  <path stroke="rgba(56, 75, 63, 0.8)" transform="rotate(-22.9045467376709 167.06886291503903,240.24307250976568) " d="m229.0567,91.91798c-47.07381,0 -92.69904,46.78514 -113.95769,67.2851c-22.3038,21.50851 -60.79017,32.24819 -60.79017,84.26598c0,65.30761 45.04295,164.7776 95.97953,141.69366c34.87154,-15.80364 50.61518,-27.51665 69.85423,-75.80925c14.88315,-37.35838 57.87045,-53.15679 57.87045,-115.61925c-0.00027,-65.30678 16.33117,-101.81623 -48.95636,-101.81623l0.00001,0l0,-0.00001z" opacity="0.75" stroke-linecap="null" stroke-linejoin="null" stroke-dasharray="null" stroke-width="0.2" fill="rgba(255, 255, 255, 0.37)" id="svg_2"/>
 </g>
</svg>
